HIERARCHY
ROOT hip
{
  OFFSET -4.56173 83.8317 38.7167
  CHANNELS 6 Xposition Yposition Zposition Zrotation Xrotation Yrotation
  JOINT abdomen
  {
    OFFSET 0 20.6881 -0.73152
    CHANNELS 3 Zrotation Xrotation Yrotation
    JOINT chest
    {
      OFFSET 0 11.7043 -0.48768
      CHANNELS 3 Zrotation Xrotation Yrotation
      JOINT neck
      {
        OFFSET 0 22.1894 -2.19456
        CHANNELS 3 Zrotation Xrotation Yrotation
        JOINT head
        {
          OFFSET -0.24384 7.07133 1.2192
          CHANNELS 3 Zrotation Xrotation Yrotation
          JOINT leftEye
          {
            OFFSET 4.14528 8.04674 8.04672
            CHANNELS 3 Zrotation Xrotation Yrotation
            End Site
            {
              OFFSET 1 0 0
            }
          }
          JOINT rightEye
          {
            OFFSET -3.6576 8.04674 8.04672
            CHANNELS 3 Zrotation Xrotation Yrotation
            End Site
            {
              OFFSET 1 0 0
            }
          }
        }
      }
      JOINT rCollar
      {
        OFFSET -2.68224 19.2634 -4.8768
        CHANNELS 3 Zrotation Xrotation Yrotation
        JOINT rShldr
        {
          OFFSET -8.77824 -1.95073 1.46304
          CHANNELS 3 Zrotation Xrotation Yrotation
          JOINT rForeArm
          {
            OFFSET -28.1742 -1.7115 0.48768
            CHANNELS 3 Zrotation Xrotation Yrotation
            JOINT rHand
            {
              OFFSET -22.5879 0.773209 7.07136
              CHANNELS 3 Zrotation Xrotation Yrotation
              JOINT rThumb1
              {
                OFFSET -1.2192 -0.487915 3.41376
                CHANNELS 3 Zrotation Xrotation Yrotation
                JOINT rThumb2
                {
                  OFFSET -3.37035 -0.52449 3.41376
                  CHANNELS 3 Zrotation Xrotation Yrotation
                  End Site
                  {
                    OFFSET -1.78271 -1.18214 1.43049
                  }
                }
              }
              JOINT rIndex1
              {
                OFFSET -7.75947 0.938293 5.60832
                CHANNELS 3 Zrotation Xrotation Yrotation
                JOINT rIndex2
                {
                  OFFSET -2.54057 -0.884171 1.56538
                  CHANNELS 3 Zrotation Xrotation Yrotation
                  End Site
                  {
                    OFFSET -1.62519 -0.234802 1.16502
                  }
                }
              }
              JOINT rMid1
              {
                OFFSET -8.24714 1.18213 3.41376
                CHANNELS 3 Zrotation Xrotation Yrotation
                JOINT rMid2
                {
                  OFFSET -3.10165 -0.590103 1.0647
                  CHANNELS 3 Zrotation Xrotation Yrotation
                  End Site
                  {
                    OFFSET -2.48547 -0.328903 0.83742
                  }
                }
              }
              JOINT rRing1
              {
                OFFSET -8.82822 0.546677 1.51678
                CHANNELS 3 Zrotation Xrotation Yrotation
                JOINT rRing2
                {
                  OFFSET -2.60934 -0.819778 -0.0198488
                  CHANNELS 3 Zrotation Xrotation Yrotation
                  End Site
                  {
                    OFFSET -2.33842 -0.294052 0.168128
                  }
                }
              }
              JOINT rPinky1
              {
                OFFSET -8.27202 -0.0477905 -0.4584
                CHANNELS 3 Zrotation Xrotation Yrotation
                JOINT rPinky2
                {
                  OFFSET -1.82734 -0.647385 -0.700984
                  CHANNELS 3 Zrotation Xrotation Yrotation
                  End Site
                  {
                    OFFSET -1.69225 -0.51767 -0.607171
                  }
                }
              }
            }
          }
        }
      }
      JOINT lCollar
      {
        OFFSET 2.68224 19.2634 -4.8768
        CHANNELS 3 Zrotation Xrotation Yrotation
        JOINT lShldr
        {
          OFFSET 8.77824 -1.95073 1.46304
          CHANNELS 3 Zrotation Xrotation Yrotation
          JOINT lForeArm
          {
            OFFSET 28.1742 -1.7115 0.48768
            CHANNELS 3 Zrotation Xrotation Yrotation
            JOINT lHand
            {
              OFFSET 22.5879 0.773209 7.07136
              CHANNELS 3 Zrotation Xrotation Yrotation
              JOINT lThumb1
              {
                OFFSET 1.2192 -0.487915 3.41376
                CHANNELS 3 Zrotation Xrotation Yrotation
                JOINT lThumb2
                {
                  OFFSET 3.37035 -0.52449 3.41376
                  CHANNELS 3 Zrotation Xrotation Yrotation
                  End Site
                  {
                    OFFSET 1.78271 -1.18214 1.43049
                  }
                }
              }
              JOINT lIndex1
              {
                OFFSET 7.75947 0.938293 5.60832
                CHANNELS 3 Zrotation Xrotation Yrotation
                JOINT lIndex2
                {
                  OFFSET 2.54057 -0.884171 1.56538
                  CHANNELS 3 Zrotation Xrotation Yrotation
                  End Site
                  {
                    OFFSET 1.62519 -0.234802 1.16502
                  }
                }
              }
              JOINT lMid1
              {
                OFFSET 8.24714 1.18213 3.41376
                CHANNELS 3 Zrotation Xrotation Yrotation
                JOINT lMid2
                {
                  OFFSET 3.10165 -0.590103 1.0647
                  CHANNELS 3 Zrotation Xrotation Yrotation
                  End Site
                  {
                    OFFSET 2.48547 -0.328903 0.83742
                  }
                }
              }
              JOINT lRing1
              {
                OFFSET 8.82822 0.546677 1.51678
                CHANNELS 3 Zrotation Xrotation Yrotation
                JOINT lRing2
                {
                  OFFSET 2.60934 -0.819778 -0.0198488
                  CHANNELS 3 Zrotation Xrotation Yrotation
                  End Site
                  {
                    OFFSET 2.33842 -0.294052 0.168128
                  }
                }
              }
              JOINT lPinky1
              {
                OFFSET 8.27202 -0.0477905 -0.4584
                CHANNELS 3 Zrotation Xrotation Yrotation
                JOINT lPinky2
                {
                  OFFSET 1.82734 -0.647385 -0.700984
                  CHANNELS 3 Zrotation Xrotation Yrotation
                  End Site
                  {
                    OFFSET 1.69225 -0.51767 -0.607171
                  }
                }
              }
            }
          }
        }
      }
    }
  }
  JOINT rButtock
  {
    OFFSET -8.77824 4.35084 1.2192
    CHANNELS 3 Zrotation Xrotation Yrotation
    JOINT rThigh
    {
      OFFSET 0 -1.70687 -2.19456
      CHANNELS 3 Zrotation Xrotation Yrotation
      JOINT rShin
      {
        OFFSET 0 -36.8199 0.73152
        CHANNELS 3 Zrotation Xrotation Yrotation
        JOINT rFoot
        {
          OFFSET 0.73152 -45.1104 -5.12064
          CHANNELS 3 Zrotation Xrotation Yrotation
          End Site
          {
            OFFSET -1.1221 -3.69964 12.103
          }
        }
      }
    }
  }
  JOINT lButtock
  {
    OFFSET 8.77824 4.35084 1.2192
    CHANNELS 3 Zrotation Xrotation Yrotation
    JOINT lThigh
    {
      OFFSET 0 -1.70687 -2.19456
      CHANNELS 3 Zrotation Xrotation Yrotation
      JOINT lShin
      {
        OFFSET 0 -36.8199 0.73152
        CHANNELS 3 Zrotation Xrotation Yrotation
        JOINT lFoot
        {
          OFFSET -0.73152 -45.1104 -5.12064
          CHANNELS 3 Zrotation Xrotation Yrotation
          End Site
          {
            OFFSET 1.1221 -3.69964 12.103
          }
        }
      }
    }
  }
}
MOTION
Frames:	8
Frame Time:	0.00833333
-3.66052 84.0072 36.9564 -3.21925 -7.04834 -1.28897 0.359579 4.18747 3.24863 1.02594 -1.91192 0.971101 -4.83161 6.78293 -7.55399 13.6169 14.8762 -15.9239 -0 0 0 -0 0 0 6.10036e-014 -9.29333e-014 4.50294e-015 88.0305 35.2775 -16.8848 -26.4918 -24.7862 59.0353 -0.15069 -11.8052 -1.67768 -2.17801e-010 1.3308e-009 -8.86733e-010 -3.67738e-010 2.27251e-009 -1.53403e-009 -2.17801e-010 1.3308e-009 -8.86739e-010 7.73091 5.47488 0.417314 -2.17802e-010 1.3308e-009 -8.8673e-010 2.90554 0.965183 0.102902 -2.17803e-010 1.3308e-009 -8.8673e-010 10.2786 0.731801 0.0259123 -2.17812e-010 1.33081e-009 -8.86722e-010 2.22167 -0.733487 -0.20892 6.10379e-014 -9.29422e-014 4.2498e-015 -89.498 26.4291 11.9802 20.038 -13.0593 -38.7732 0.0384273 -5.58115 0.78691 -3.73988e-010 -9.41849e-010 -1.17317e-010 -6.45528e-010 -1.62683e-009 -2.05854e-010 -3.73993e-010 -9.41845e-010 -1.17295e-010 -7.73091 5.47488 -0.417314 -3.73987e-010 -9.41849e-010 -1.17319e-010 -2.90554 0.965183 -0.102902 -3.73997e-010 -9.41849e-010 -1.17319e-010 -10.2786 0.731801 -0.0259123 -3.73987e-010 -9.41847e-010 -1.17325e-010 -2.22167 -0.733487 0.20892 -2.03217e-016 0 -3.88251e-019 -4.12758 12.0059 4.74675 0.00635917 0.63409 0.0564465 -4.33383 -15.5488 -13.5144 2.03217e-016 0 3.88251e-019 7.53061 -2.65181 -7.10876 0.089455 24.0359 -0.550024 4.31763 -17.0681 12.0401 
-3.6516 84.0051 36.9518 -3.18235 -7.0818 -1.0675 0.419566 4.18362 3.26951 1.05639 -1.78009 0.977252 -4.80589 6.80607 -7.56362 13.665 14.2441 -15.8633 -0 0 0 -0 0 0 8.18351e-014 -1.28958e-013 3.64646e-015 87.916 35.1875 -17.0819 -26.6822 -25.3706 60.0365 -0.252507 -15.0632 -2.1592 -3.42429e-010 1.5214e-009 -8.31921e-010 -5.82009e-010 2.60256e-009 -1.44044e-009 -3.4243e-010 1.5214e-009 -8.31928e-010 7.73091 5.47488 0.417314 -3.4243e-010 1.5214e-009 -8.31919e-010 2.90554 0.965183 0.102902 -3.4243e-010 1.5214e-009 -8.31919e-010 10.2786 0.731801 0.0259123 -3.42436e-010 1.52141e-009 -8.31912e-010 2.22167 -0.733487 -0.20892 8.18633e-014 -1.28965e-013 3.4601e-015 -89.3036 27.0034 11.6127 20.1306 -13.1754 -39.0031 0.0427436 -5.86099 0.82669 -5.32911e-010 -1.21911e-009 -1.27815e-010 -9.20082e-010 -2.10602e-009 -2.24665e-010 -5.32917e-010 -1.21911e-009 -1.27796e-010 -7.73091 5.47488 -0.417314 -5.3291e-010 -1.21911e-009 -1.27816e-010 -2.90554 0.965183 -0.102902 -5.32919e-010 -1.21911e-009 -1.27817e-010 -10.2786 0.731801 -0.0259123 -5.32909e-010 -1.21911e-009 -1.27822e-010 -2.22167 -0.733487 0.20892 -2.03217e-016 0 -3.88251e-019 -4.12297 12.0785 4.52921 0.00635257 0.644949 0.0564045 -4.31633 -15.5557 -13.4556 2.03217e-016 0 3.88251e-019 7.53001 -2.69843 -7.14394 0.0897257 24.0647 -0.548505 4.2464 -17.0102 11.8754 
-3.62331 84.0013 36.95 -3.13737 -7.11562 -0.772335 0.482725 4.1826 3.24255 1.07381 -1.6547 0.969747 -4.73016 6.85407 -7.53311 13.6395 13.4307 -15.702 -0 0 0 -0 0 0 1.01779e-013 -1.6789e-013 4.29639e-015 88.0878 35.155 -17.6586 -26.9652 -26.2704 61.4698 -0.420406 -18.5589 -2.6989 -5.01775e-010 2.02944e-009 -8.09862e-010 -8.54768e-010 3.47069e-009 -1.40443e-009 -5.01776e-010 2.02945e-009 -8.09869e-010 7.73091 5.47488 0.417314 -5.01777e-010 2.02945e-009 -8.09861e-010 2.90554 0.965183 0.102902 -5.01774e-010 2.02945e-009 -8.09861e-010 10.2786 0.731801 0.0259123 -5.01777e-010 2.02945e-009 -8.09855e-010 2.22167 -0.733487 -0.20892 1.01791e-013 -1.67894e-013 4.1706e-015 -89.1079 27.5504 11.2786 20.255 -13.3341 -39.3094 0.048497 -6.23685 0.880128 -7.00758e-010 -1.52963e-009 -1.11598e-010 -1.21034e-009 -2.64317e-009 -1.97422e-010 -7.00765e-010 -1.52962e-009 -1.1158e-010 -7.73091 5.47488 -0.417314 -7.00758e-010 -1.52963e-009 -1.11596e-010 -2.90554 0.965183 -0.102902 -7.00766e-010 -1.52963e-009 -1.11598e-010 -10.2786 0.731801 -0.0259123 -7.00754e-010 -1.52963e-009 -1.11603e-010 -2.22167 -0.733487 0.20892 -2.03217e-016 0 -3.88251e-019 -4.11429 12.1657 4.23859 0.00634891 0.658923 0.056393 -4.29669 -15.5673 -13.3896 2.03217e-016 0 3.88251e-019 7.53022 -2.765 -7.1936 0.0901162 24.1014 -0.546522 4.15391 -16.9354 11.6598 
-3.60522 83.9963 36.946 -3.09759 -7.15617 -0.479085 0.568246 4.21017 3.15742 1.0616 -1.57339 0.945903 -4.56138 6.95328 -7.42552 13.4312 12.4448 -15.3673 -0 0 0 -0 0 0 1.15896e-013 -2.0753e-013 6.41081e-015 88.355 35.2648 -18.2528 -27.2895 -27.3575 63.0424 -0.602855 -21.5032 -3.17406 -7.08124e-010 3.25037e-009 -9.53374e-010 -1.20525e-009 5.54605e-009 -1.65625e-009 -7.08125e-010 3.25038e-009 -9.53381e-010 7.73091 5.47488 0.417314 -7.08125e-010 3.25038e-009 -9.53374e-010 2.90554 0.965183 0.102902 -7.08122e-010 3.25038e-009 -9.53374e-010 10.2786 0.731801 0.0259123 -7.08123e-010 3.25038e-009 -9.53368e-010 2.22167 -0.733487 -0.20892 1.15894e-013 -2.07532e-013 6.31141e-015 -88.9566 27.9987 11.0704 20.4145 -13.5421 -39.6958 0.0555648 -6.71144 0.947612 -8.49107e-010 -1.84135e-009 -6.2358e-011 -1.46732e-009 -3.183e-009 -1.13469e-010 -8.49115e-010 -1.84135e-009 -6.23421e-011 -7.73091 5.47488 -0.417314 -8.49108e-010 -1.84135e-009 -6.23548e-011 -2.90554 0.965183 -0.102902 -8.49114e-010 -1.84135e-009 -6.23564e-011 -10.2786 0.731801 -0.0259123 -8.49102e-010 -1.84134e-009 -6.23611e-011 -2.22167 -0.733487 0.20892 -2.03217e-016 0 -3.88251e-019 -4.10025 12.2527 3.9495 0.00634746 0.673512 0.0564025 -4.27857 -15.5823 -13.33 2.03217e-016 0 3.88251e-019 7.53759 -2.82701 -7.23509 0.0905995 24.1377 -0.544505 4.06046 -16.85 11.4451 
-3.59061 83.991 36.943 -3.06319 -7.20926 -0.137052 0.684149 4.2816 2.96914 1.00027 -1.5508 0.892939 -4.2758 7.13126 -7.22092 13.0362 11.1809 -14.8105 -0 0 0 -0 0 0 1.2464e-013 -2.62197e-013 1.16029e-014 88.8983 35.5058 -19.0675 -27.6549 -28.7265 64.9234 -0.749852 -23.6666 -3.53413 -1.05168e-009 5.9923e-009 -1.44396e-009 -1.78498e-009 1.01968e-008 -2.51177e-009 -1.05168e-009 5.9923e-009 -1.44396e-009 7.73091 5.47488 0.417314 -1.05168e-009 5.9923e-009 -1.44396e-009 2.90554 0.965183 0.102902 -1.05168e-009 5.9923e-009 -1.44396e-009 10.2786 0.731801 0.0259123 -1.05168e-009 5.9923e-009 -1.44395e-009 2.22167 -0.733487 -0.20892 1.24625e-013 -2.62197e-013 1.14748e-014 -88.8653 28.3303 11.0342 20.6319 -13.8315 -40.2234 0.0656499 -7.35009 1.0386 -1.00416e-009 -2.24573e-009 5.29029e-011 -1.73674e-009 -3.88421e-009 8.36015e-011 -1.00416e-009 -2.24573e-009 5.29168e-011 -7.73091 5.47488 -0.417314 -1.00416e-009 -2.24573e-009 5.29052e-011 -2.90554 0.965183 -0.102902 -1.00416e-009 -2.24573e-009 5.29052e-011 -10.2786 0.731801 -0.0259123 -1.00415e-009 -2.24573e-009 5.29011e-011 -2.22167 -0.733487 0.20892 -2.03217e-016 0 -3.88251e-019 -4.07314 12.3519 3.6114 0.00634993 0.692635 0.0564546 -4.25924 -15.615 -13.263 2.03217e-016 0 3.88251e-019 7.56041 -2.89568 -7.27042 0.0913415 24.1803 -0.542121 3.94919 -16.7349 11.1935 
-3.56027 83.9878 36.9439 -3.02775 -7.26992 0.27053 0.81995 4.3803 2.69726 0.903691 -1.56533 0.816303 -3.9022 7.36721 -6.94227 12.5319 9.6625 -14.0916 -0 0 0 -0 0 0 1.30052e-013 -3.28095e-013 1.93536e-014 89.7573 35.8319 -20.2037 -27.9867 -30.2989 67.304 -0.878177 -25.4773 -3.84289 -1.49692e-009 9.8101e-009 -2.16208e-009 -2.5349e-009 1.66696e-008 -3.76336e-009 -1.49691e-009 9.8101e-009 -2.16208e-009 7.73091 5.47488 0.417314 -1.49692e-009 9.8101e-009 -2.16208e-009 2.90554 0.965183 0.102902 -1.49691e-009 9.81009e-009 -2.16208e-009 10.2786 0.731801 0.0259123 -1.49692e-009 9.81009e-009 -2.16207e-009 2.22167 -0.733487 -0.20892 1.30023e-013 -3.28094e-013 1.9161e-014 -88.8137 28.5826 11.1153 20.8921 -14.1823 -40.8723 0.0802005 -8.12978 1.15015 -1.1698e-009 -2.72654e-009 2.20382e-010 -2.02512e-009 -4.71849e-009 3.70253e-010 -1.16981e-009 -2.72654e-009 2.20394e-010 -7.73091 5.47488 -0.417314 -1.16981e-009 -2.72654e-009 2.20382e-010 -2.90554 0.965183 -0.102902 -1.16981e-009 -2.72654e-009 2.20385e-010 -10.2786 0.731801 -0.0259123 -1.1698e-009 -2.72653e-009 2.20382e-010 -2.22167 -0.733487 0.20892 -2.03217e-016 0 -3.88251e-019 -4.03525 12.4655 3.20781 0.00635599 0.716099 0.0565463 -4.23789 -15.6611 -13.1872 2.03217e-016 0 3.88251e-019 7.59305 -2.97814 -7.30899 0.0922958 24.2308 -0.539291 3.81765 -16.5932 10.8949 
-3.5382 83.9872 36.9461 -2.99525 -7.32875 0.617065 0.966716 4.48431 2.42821 0.805116 -1.6002 0.740655 -3.47609 7.61483 -6.61684 11.9255 8.0928 -13.2952 -0 0 0 -0 0 0 1.29586e-013 -3.75853e-013 2.64224e-014 90.5235 36.2941 -21.1469 -28.2037 -31.7936 69.851 -1.00113 -27.1354 -4.132 -1.86752e-009 1.32194e-008 -2.78902e-009 -3.15837e-009 2.24509e-008 -4.85607e-009 -1.86751e-009 1.32194e-008 -2.78902e-009 7.73091 5.47488 0.417314 -1.86751e-009 1.32194e-008 -2.78902e-009 2.90554 0.965183 0.102902 -1.86751e-009 1.32194e-008 -2.78902e-009 10.2786 0.731801 0.0259123 -1.86752e-009 1.32194e-008 -2.78901e-009 2.22167 -0.733487 -0.20892 1.29542e-013 -3.75851e-013 2.61623e-014 -88.7957 28.7674 11.2562 21.1451 -14.5274 -41.5245 0.0975881 -8.92064 1.2639 -1.28418e-009 -3.09016e-009 3.76186e-010 -2.22473e-009 -5.34995e-009 6.37216e-010 -1.28419e-009 -3.09016e-009 3.76196e-010 -7.73091 5.47488 -0.417314 -1.28419e-009 -3.09016e-009 3.76184e-010 -2.90554 0.965183 -0.102902 -1.28419e-009 -3.09016e-009 3.76189e-010 -10.2786 0.731801 -0.0259123 -1.28417e-009 -3.09015e-009 3.76187e-010 -2.22167 -0.733487 0.20892 -2.03217e-016 0 -3.88251e-019 -4.00207 12.564 2.86474 0.00636199 0.735225 0.0566311 -4.22128 -15.6919 -13.1345 2.03217e-016 0 3.88251e-019 7.62116 -3.04384 -7.33923 0.0931233 24.2726 -0.536821 3.70622 -16.4658 10.6421 
-3.54903 83.9887 36.9444 -2.97039 -7.37672 0.775864 1.11455 4.57172 2.2485 0.737935 -1.63866 0.690655 -3.03162 7.82775 -6.27197 11.2051 6.68046 -12.497 -0 0 0 -0 0 0 1.20695e-013 -3.76102e-013 2.95692e-014 90.7682 36.964 -21.3739 -28.3137 -33.0392 72.1338 -1.14185 -28.8403 -4.43865 -1.98717e-009 1.47357e-008 -3.00604e-009 -3.35873e-009 2.50276e-008 -5.23495e-009 -1.98716e-009 1.47357e-008 -3.00604e-009 7.73091 5.47488 0.417314 -1.98717e-009 1.47357e-008 -3.00605e-009 2.90554 0.965183 0.102902 -1.98716e-009 1.47357e-008 -3.00604e-009 10.2786 0.731801 0.0259123 -1.98718e-009 1.47357e-008 -3.00603e-009 2.22167 -0.733487 -0.20892 1.20638e-013 -3.76099e-013 2.9271e-014 -88.8036 28.8968 11.3984 21.3468 -14.8063 -42.0592 0.11421 -9.59282 1.36105 -1.28541e-009 -3.14298e-009 4.56422e-010 -2.22781e-009 -5.44272e-009 7.75223e-010 -1.28542e-009 -3.14298e-009 4.56432e-010 -7.73091 5.47488 -0.417314 -1.28542e-009 -3.14298e-009 4.56419e-010 -2.90554 0.965183 -0.102902 -1.28542e-009 -3.14297e-009 4.56425e-010 -10.2786 0.731801 -0.0259123 -1.28541e-009 -3.14297e-009 4.56422e-010 -2.22167 -0.733487 0.20892 -2.03217e-016 0 -3.88251e-019 -3.99054 12.6185 2.70853 0.00636436 0.741338 0.0566625 -4.21632 -15.6785 -13.1366 2.03217e-016 0 3.88251e-019 7.63049 -3.06222 -7.34952 0.0934901 24.2895 -0.535524 3.65369 -16.3941 10.5274 
